<svg xmlns="http://www.w3.org/2000/svg" viewBox="0 0 482 492" width="482" height="492">
	<style>
		tspan { white-space:pre }
		.shp0 { fill: #1a428c } 
		.shp1 { fill: #1a5295 } 
		.shp2 { fill: #1e5fa6 } 
		.shp3 { fill: #317bb5 } 
		.shp4 { fill: #45a8c7 } 
		.shp5 { fill: #54556a } 
	</style>
	<path id="Layer" fill-rule="evenodd" class="shp0" d="M336.4 1.6L420.1 1.6L245 214.2L171.3 204.2L336.4 1.6Z" />
	<path id="Layer" fill-rule="evenodd" class="shp1" d="M109.3 152.1L193 152.1L245 214.2L203.3 264.2L109.3 152.1Z" />
	<path id="Layer" fill-rule="evenodd" class="shp2" d="M72.3 103.9L156 103.9L187.6 142.2L103.9 142.2L72.3 103.9Z" />
	<path id="Layer" fill-rule="evenodd" class="shp3" d="M51.9 75.3L135.6 75.3L151.4 94.5L67.7 94.5L51.9 75.3Z" />
	<path id="Layer" fill-rule="evenodd" class="shp4" d="M38.5 56.5L122.2 56.5L130.1 66.1L46.4 66.1L38.5 56.5Z" />
	<g id="Layer">
		<g id="Layer">
			<path id="Layer" fill-rule="evenodd" class="shp5" d="M350.5 143.5C355.5 139.1 377.5 121 393.5 108.5C383.6 92 367.5 81.5 367.5 81.5L331.5 125.5C331.5 125.5 342.3 132.7 350.5 143.5ZM250.5 225.5C246.2 230.1 211.5 272.5 211.5 272.5C211.5 272.5 293.2 338 376.5 267.5C371 260.1 358.5 244.8 341.5 223.5C298.6 262.3 259.4 233.7 250.5 225.5Z" />
		</g>
	</g>
	<g id="Layer">
		<g id="Layer">
			<path id="Layer" fill-rule="evenodd" class="shp0" d="M73.2 353.1L89.4 353.1L53.9 439.1L40.7 439.1L5.2 353.1L21.8 353.1L47.6 418.8L73.2 353.1ZM152.7 407.5C152.7 408.4 152.6 410.9 152.5 411.6L105.1 411.6C106.7 422.1 114.2 428 123.7 428C130.9 428 136.1 425.3 141.2 420.3L149.9 428C143.8 435.3 135.3 440.1 123.5 440.1C104.8 440.1 90.4 426.5 90.4 406.4C90.4 387.9 103.5 372.8 121.9 372.8C142.4 372.8 152.7 388.9 152.7 407.5ZM138.1 401.9C137.1 392.3 131.5 384.9 121.7 384.9C112.7 384.9 106.3 391.9 105 401.9L138.1 401.9ZM205.4 373L205.4 388.6L204.5 388.6C191.5 388.6 182.5 397 182.5 414.1L182.5 438.6L167.7 438.6L167.7 374.2L182.5 374.2L182.5 388.7C186.5 379 193.9 372.4 205.4 373ZM264.1 419.5C264.1 433.1 253.6 439.8 240.2 439.8C231.1 439.8 221 436.5 212.9 430.2L219.5 420.2C226.4 425.4 234 428.1 240.6 428.1C246.9 428.1 250.6 425.4 250.6 420.9C250.6 416.2 244.4 414.5 237.3 412.4C236.9 412.2 236.6 412.1 236.2 412C226.7 409.2 216.1 405.3 216.1 392.7C216.1 380.4 226.2 373 239 373C247.1 373 255.9 375.8 262.7 380.3L256.8 390.8C250.6 387 244 384.7 238.6 384.7C232.9 384.7 229.6 387.4 229.6 391.4C229.6 395.8 235.8 397.8 242.9 400.1C243.2 400.3 243.7 400.4 244.1 400.5C253.5 403.4 264.2 407.7 264.1 419.5ZM280.1 374.2L294.9 374.2L294.9 438.6L280.1 438.6L280.1 374.2ZM279.5 350.3L295.4 350.3L295.4 364.3L279.5 364.3L279.5 350.3ZM368.2 400.3L368.2 438.5L353.6 438.5L353.6 430.6C349.2 435.9 342.5 439.9 332.7 439.9C320.5 439.9 309.8 433 309.8 419.8C309.8 405.5 320.9 398.7 335.9 398.7C343.7 398.7 348.7 399.8 353.7 401.4L353.7 400.2C353.7 391.3 348.1 386.4 337.8 386.4C330.6 386.4 325.3 388 319.4 390.4L315.4 378.6C322.4 375.4 329.4 373.2 339.9 373.2C359 373.2 368.2 383.2 368.2 400.3ZM354.1 415.3L354.1 411.6C350.3 410.1 345 409 339.3 409C330 409 324.5 412.8 324.5 419.3C324.5 425.4 329.9 428.8 336.9 428.8C346.7 428.8 354 423.4 354 415.3L354.1 415.3ZM443.8 397.5L443.8 438.5L429 438.5L429 401.9C429 391.9 424 386.2 415.2 386.2C406.7 386.2 400.7 392.2 400.7 402.2L400.7 438.6L385.9 438.6L385.9 374.2L400.7 374.2L400.7 384.2C404.8 378 410.8 372.8 420.8 372.8C435.3 372.8 443.7 382.6 443.8 397.5ZM477.8 350.2L477.8 364.2L461.9 364.2L461.9 350.2L477.8 350.2ZM462.5 374.2L477.3 374.2L477.3 438.6L462.5 438.6L462.5 374.2Z" />
		</g>
	</g>
	<path id="Layer" class="shp5" d="M48.4 485.8C52.2 485.8 54.4 484.6 56.4 482.5L53.7 479.6C52.2 481 50.8 481.9 48.5 481.9C45.1 481.9 42.8 479.1 42.8 475.7C42.8 472.3 45.2 469.5 48.5 469.5C50.7 469.5 52 470.3 53.5 471.7L56.1 468.7C54.3 466.9 52.2 465.5 48.5 465.5C42.5 465.5 38.3 470.1 38.3 475.6C38.3 481.3 42.6 485.8 48.4 485.8Z" />
	<path id="Layer" fill-rule="evenodd" class="shp5" d="M86.4 475.7C86.4 470.2 90.7 465.6 96.8 465.6C102.9 465.6 107.2 470.1 107.2 475.7C107.2 481.2 102.8 485.8 96.8 485.8C90.8 485.8 86.5 481.3 86.4 475.7ZM102.8 475.6C102.8 472.2 100.4 469.4 96.9 469.4C93.4 469.4 91 472.2 91 475.6C91 479 93.4 481.8 96.9 481.8C100.4 481.8 102.8 479 102.8 475.6Z" />
	<path id="Layer" class="shp5" d="M139.2 485.4L143.5 485.4L143.5 473L153 485.5L156.7 485.5L156.7 465.9L152.4 465.9L152.4 478L143.2 465.9L139.2 465.9L139.2 485.4Z" />
	<path id="Layer" class="shp5" d="M196.3 485.7C200.5 485.7 203.5 483.5 203.5 479.6C203.5 476.1 201.3 474.7 197.3 473.7C193.9 472.8 193.1 472.4 193.1 471.1C193.1 470.1 194 469.3 195.6 469.3C197.3 469.3 199 470 200.7 471.2L202.9 468C200.9 466.4 198.5 465.5 195.6 465.5C191.6 465.5 188.7 467.9 188.7 471.4C188.7 475.3 191.2 476.4 195.2 477.4C198.5 478.2 199.1 478.8 199.1 479.9C199.1 481.1 198 481.8 196.3 481.8C194.1 481.8 192.2 480.9 190.4 479.4L187.9 482.5C190.4 484.7 193.4 485.7 196.3 485.7Z" />
	<path id="Layer" class="shp5" d="M243.5 485.7C248.8 485.7 252.1 482.8 252.1 476.9L252.1 465.8L247.8 465.8L247.8 477C247.8 480.1 246.2 481.7 243.6 481.7C241 481.7 239.4 480 239.4 476.9L239.4 465.8L235 465.8L235 477C235 482.8 238.3 485.7 243.5 485.7Z" />
	<path id="Layer" class="shp5" d="M284.6 485.4L298.7 485.4L298.7 481.5L288.9 481.5L288.9 465.8L284.6 465.8L284.6 485.4L284.6 485.4Z" />
	<path id="Layer" class="shp5" d="M331.7 485.4L336 485.4L336 469.8L342 469.8L342 465.8L325.8 465.8L325.8 469.8L331.8 469.8L331.8 485.4L331.7 485.4Z" />
	<path id="Layer" class="shp5" d="M373.5 485.4L377.8 485.4L377.8 465.8L373.5 465.8L373.5 485.4Z" />
	<path id="Layer" class="shp5" d="M410.8 485.4L415.1 485.4L415.1 473L424.6 485.5L428.3 485.5L428.3 465.9L424 465.9L424 478L414.8 465.9L410.8 465.9L410.8 485.4Z" />
	<path id="Layer" class="shp5" d="M470.4 485.8C474 485.8 476.8 484.4 478.8 482.7L478.8 474.2L470.3 474.2L470.3 477.9L474.6 477.9L474.6 480.7C473.5 481.5 472.1 481.9 470.5 481.9C467 481.9 464.6 479.3 464.6 475.7C464.6 472.3 467.1 469.5 470.2 469.5C472.5 469.5 473.8 470.2 475.3 471.5L478 468.2C476 466.5 473.8 465.5 470.3 465.5C464.4 465.5 460 470.1 460 475.6C460.1 481.5 464.3 485.8 470.4 485.8Z" />
</svg>